<svg width="30" height="28" viewBox="0 0 30 28" fill="none" xmlns="http://www.w3.org/2000/svg">
<g clip-path="url(#clip0)">
<path d="M9.72656 18.8258H25.6055C25.998 18.8258 26.3438 18.5642 26.4492 18.1778L29.9648 5.69409C30.041 5.42658 29.9883 5.13529 29.8242 4.9094C29.6602 4.6835 29.3965 4.55272 29.1211 4.55272H7.69922L7.07227 1.68146C6.97852 1.28317 6.62109 0.991879 6.21094 0.991879H0.878906C0.392578 0.991879 0 1.39017 0 1.88357C0 2.37698 0.392578 2.77527 0.878906 2.77527H5.50781L8.68359 17.2683C7.75195 17.6785 7.0957 18.6237 7.0957 19.7234C7.0957 21.1977 8.2793 22.3985 9.73242 22.3985H25.6113C26.0977 22.3985 26.4902 22.0002 26.4902 21.5068C26.4902 21.0134 26.0977 20.6151 25.6113 20.6151H9.72656C9.24023 20.6151 8.84766 20.2168 8.84766 19.7234C8.84766 19.23 9.24023 18.8258 9.72656 18.8258Z" fill="black"/>
<path d="M8.84766 25.0677C8.84766 26.5419 10.0312 27.7428 11.4844 27.7428C12.9375 27.7428 14.1211 26.5419 14.1211 25.0677C14.1211 23.5934 12.9375 22.3926 11.4844 22.3926C10.0312 22.3926 8.84766 23.5934 8.84766 25.0677Z" fill="black"/>
<path d="M21.2109 25.0677C21.2109 26.5419 22.3945 27.7428 23.8477 27.7428C25.3008 27.7428 26.4844 26.5419 26.4844 25.0677C26.4844 23.5934 25.3008 22.3926 23.8477 22.3926C22.3945 22.3926 21.2109 23.5934 21.2109 25.0677Z" fill="black"/>
</g>
<defs>
<clipPath id="clip0">
<rect width="30" height="26.7509" fill="white" transform="translate(0 0.991879)"/>
</clipPath>
</defs>
</svg>
