<svg width="30" height="28" viewBox="0 0 30 28" fill="none" xmlns="http://www.w3.org/2000/svg">
<g clip-path="url(#clip0)">
<path d="M9.72656 18.5373H25.6055C25.998 18.5373 26.3438 18.2757 26.4492 17.8893L29.9648 5.40557C30.041 5.13807 29.9883 4.84678 29.8242 4.62088C29.6602 4.39499 29.3965 4.26421 29.1211 4.26421H7.69922L7.07227 1.39295C6.97852 0.994656 6.62109 0.703369 6.21094 0.703369H0.878906C0.392578 0.703369 0 1.10166 0 1.59506C0 2.08847 0.392578 2.48676 0.878906 2.48676H5.50781L8.68359 16.9798C7.75195 17.39 7.0957 18.3352 7.0957 19.4349C7.0957 20.9092 8.2793 22.11 9.73242 22.11H25.6113C26.0977 22.11 26.4902 21.7117 26.4902 21.2183C26.4902 20.7249 26.0977 20.3266 25.6113 20.3266H9.72656C9.24023 20.3266 8.84766 19.9283 8.84766 19.4349C8.84766 18.9415 9.24023 18.5373 9.72656 18.5373Z" fill="black"/>
<path d="M8.84766 24.7791C8.84766 26.2534 10.0312 27.4542 11.4844 27.4542C12.9375 27.4542 14.1211 26.2534 14.1211 24.7791C14.1211 23.3048 12.9375 22.104 11.4844 22.104C10.0312 22.104 8.84766 23.3048 8.84766 24.7791Z" fill="black"/>
<path d="M21.2109 24.7791C21.2109 26.2534 22.3945 27.4542 23.8477 27.4542C25.3008 27.4542 26.4844 26.2534 26.4844 24.7791C26.4844 23.3048 25.3008 22.104 23.8477 22.104C22.3945 22.104 21.2109 23.3048 21.2109 24.7791Z" fill="black"/>
</g>
<defs>
<clipPath id="clip0">
<rect width="30" height="26.7509" fill="white" transform="translate(0 0.703369)"/>
</clipPath>
</defs>
</svg>
