<svg width="30" height="28" viewBox="0 0 30 28" fill="none" xmlns="http://www.w3.org/2000/svg">
<path d="M27.5121 3.5448C25.9065 1.90978 23.7677 1.00502 21.4956 1.00502C19.2236 1.00502 17.0785 1.90978 15.4728 3.55127L15.0095 4.02303L14.5335 3.53834C12.9215 1.89685 10.7827 0.992096 8.50433 0.992096C6.23228 0.992096 4.09985 1.89039 2.49418 3.53188C0.882165 5.17337 0 7.35124 0 9.66484C0 11.9784 0.888512 14.1563 2.50053 15.7913L14.0956 27.5984C14.3368 27.844 14.6668 27.9862 15.0158 27.9862C15.3586 27.9862 15.6886 27.844 15.9361 27.5984L27.4994 15.8107C29.1115 14.1692 29.9936 11.9914 30 9.67776C30.0063 7.36417 29.1178 5.18629 27.5121 3.5448Z" fill="black"/>
</svg>
